<mxfile host="app.diagrams.net" modified="2024-07-19T16:51:19.088Z" agent="Mozilla/5.0 (Windows NT 10.0; Win64; x64) AppleWebKit/537.36 (KHTML, like Gecko) Chrome/126.0.0.0 Safari/537.36" etag="y2qIGUPbOHmJrVSBvSMU" version="24.7.2" type="github">
  <diagram name="道和术" id="xdd85kt4x6ykVew1ncTJ">
    <mxGraphModel dx="1728" dy="994" grid="1" gridSize="10" guides="1" tooltips="1" connect="1" arrows="1" fold="1" page="1" pageScale="1" pageWidth="827" pageHeight="1169" math="0" shadow="0">
      <root>
        <mxCell id="0" />
        <mxCell id="1" parent="0" />
        <mxCell id="6MZimNjnhGkX_BWOf8k2-2" value="  《道德经》道和术  " style="swimlane;startSize=0;labelBackgroundColor=default;" vertex="1" parent="1">
          <mxGeometry x="40" y="40" width="640" height="480" as="geometry" />
        </mxCell>
        <mxCell id="6MZimNjnhGkX_BWOf8k2-39" value="&lt;b&gt;用啥不重要，庸人自扰&lt;/b&gt;" style="rounded=0;whiteSpace=wrap;html=1;fillColor=none;fontColor=#333333;strokeColor=#666666;verticalAlign=top;dashed=1;" vertex="1" parent="6MZimNjnhGkX_BWOf8k2-2">
          <mxGeometry x="470" y="190" width="150" height="110" as="geometry" />
        </mxCell>
        <mxCell id="6MZimNjnhGkX_BWOf8k2-34" style="edgeStyle=orthogonalEdgeStyle;rounded=0;orthogonalLoop=1;jettySize=auto;html=1;entryX=0.5;entryY=0;entryDx=0;entryDy=0;strokeWidth=3;endArrow=openThin;endFill=0;" edge="1" parent="6MZimNjnhGkX_BWOf8k2-2" source="6MZimNjnhGkX_BWOf8k2-12" target="6MZimNjnhGkX_BWOf8k2-14">
          <mxGeometry relative="1" as="geometry" />
        </mxCell>
        <mxCell id="6MZimNjnhGkX_BWOf8k2-12" value="&lt;b&gt;道和术回答的问题&lt;/b&gt;" style="rounded=0;whiteSpace=wrap;html=1;fillColor=#f5f5f5;fontColor=#333333;strokeColor=#666666;verticalAlign=top;strokeWidth=2;" vertex="1" parent="6MZimNjnhGkX_BWOf8k2-2">
          <mxGeometry x="190" y="30" width="240" height="110" as="geometry" />
        </mxCell>
        <mxCell id="6MZimNjnhGkX_BWOf8k2-10" value="&lt;b style=&quot;color: rgb(51, 51, 51);&quot;&gt;【道】&lt;/b&gt;&lt;span style=&quot;color: rgb(51, 51, 51);&quot;&gt;&lt;b&gt;本质&lt;/b&gt;，回答：&quot;&lt;/span&gt;做什么，为什么&quot;" style="rounded=0;whiteSpace=wrap;html=1;verticalAlign=top;" vertex="1" parent="6MZimNjnhGkX_BWOf8k2-2">
          <mxGeometry x="200" y="60" width="220" height="30" as="geometry" />
        </mxCell>
        <mxCell id="6MZimNjnhGkX_BWOf8k2-13" value="&lt;b style=&quot;color: rgb(51, 51, 51);&quot;&gt;【术】&lt;/b&gt;&lt;span style=&quot;color: rgb(51, 51, 51);&quot;&gt;&lt;b&gt;方法&lt;/b&gt;，回答：&quot;用什么，怎么用&quot;&lt;/span&gt;" style="rounded=0;whiteSpace=wrap;html=1;verticalAlign=top;" vertex="1" parent="6MZimNjnhGkX_BWOf8k2-2">
          <mxGeometry x="200" y="100" width="220" height="30" as="geometry" />
        </mxCell>
        <mxCell id="6MZimNjnhGkX_BWOf8k2-36" style="edgeStyle=orthogonalEdgeStyle;rounded=0;orthogonalLoop=1;jettySize=auto;html=1;endArrow=openThin;endFill=0;strokeWidth=3;" edge="1" parent="6MZimNjnhGkX_BWOf8k2-2" source="6MZimNjnhGkX_BWOf8k2-14" target="6MZimNjnhGkX_BWOf8k2-35">
          <mxGeometry relative="1" as="geometry" />
        </mxCell>
        <mxCell id="6MZimNjnhGkX_BWOf8k2-14" value="&lt;b&gt;（哲学问题）&quot;To be or not To be&quot;&lt;/b&gt;" style="rounded=0;whiteSpace=wrap;html=1;fillColor=#f5f5f5;fontColor=#333333;strokeColor=#666666;verticalAlign=top;" vertex="1" parent="6MZimNjnhGkX_BWOf8k2-2">
          <mxGeometry x="190" y="170" width="240" height="110" as="geometry" />
        </mxCell>
        <mxCell id="6MZimNjnhGkX_BWOf8k2-15" value="&lt;b style=&quot;color: rgb(51, 51, 51);&quot;&gt;【道】&lt;/b&gt;&lt;span style=&quot;color: rgb(51, 51, 51);&quot;&gt;人为什么活着，活着做什么事&lt;/span&gt;" style="rounded=0;whiteSpace=wrap;html=1;verticalAlign=top;" vertex="1" parent="6MZimNjnhGkX_BWOf8k2-2">
          <mxGeometry x="200" y="200" width="220" height="30" as="geometry" />
        </mxCell>
        <mxCell id="6MZimNjnhGkX_BWOf8k2-18" value="以道驭术，术必成" style="text;html=1;align=center;verticalAlign=middle;whiteSpace=wrap;rounded=0;fontStyle=1" vertex="1" parent="6MZimNjnhGkX_BWOf8k2-2">
          <mxGeometry x="20" y="80" width="120" height="30" as="geometry" />
        </mxCell>
        <mxCell id="6MZimNjnhGkX_BWOf8k2-19" value="有术无道，止于术" style="text;html=1;align=center;verticalAlign=middle;whiteSpace=wrap;rounded=0;fontStyle=1" vertex="1" parent="6MZimNjnhGkX_BWOf8k2-2">
          <mxGeometry x="480" y="100" width="130" height="30" as="geometry" />
        </mxCell>
        <mxCell id="6MZimNjnhGkX_BWOf8k2-20" value="" style="endArrow=none;html=1;rounded=0;exitX=1;exitY=0.5;exitDx=0;exitDy=0;entryX=0;entryY=0.5;entryDx=0;entryDy=0;strokeWidth=2;fillColor=#f5f5f5;strokeColor=#666666;" edge="1" parent="6MZimNjnhGkX_BWOf8k2-2" source="6MZimNjnhGkX_BWOf8k2-18" target="6MZimNjnhGkX_BWOf8k2-10">
          <mxGeometry width="50" height="50" relative="1" as="geometry">
            <mxPoint x="110" y="-30" as="sourcePoint" />
            <mxPoint x="160" y="-80" as="targetPoint" />
          </mxGeometry>
        </mxCell>
        <mxCell id="6MZimNjnhGkX_BWOf8k2-21" value="" style="endArrow=none;html=1;rounded=0;exitX=1;exitY=0.5;exitDx=0;exitDy=0;entryX=0;entryY=0.5;entryDx=0;entryDy=0;strokeWidth=2;fillColor=#f5f5f5;strokeColor=#666666;" edge="1" parent="6MZimNjnhGkX_BWOf8k2-2" source="6MZimNjnhGkX_BWOf8k2-18" target="6MZimNjnhGkX_BWOf8k2-13">
          <mxGeometry width="50" height="50" relative="1" as="geometry">
            <mxPoint x="150" y="98" as="sourcePoint" />
            <mxPoint x="210" y="85" as="targetPoint" />
          </mxGeometry>
        </mxCell>
        <mxCell id="6MZimNjnhGkX_BWOf8k2-22" value="" style="endArrow=none;html=1;rounded=0;strokeWidth=2;fillColor=#f5f5f5;strokeColor=#666666;exitX=1;exitY=0.5;exitDx=0;exitDy=0;" edge="1" parent="6MZimNjnhGkX_BWOf8k2-2" source="6MZimNjnhGkX_BWOf8k2-13" target="6MZimNjnhGkX_BWOf8k2-19">
          <mxGeometry width="50" height="50" relative="1" as="geometry">
            <mxPoint x="420" y="113" as="sourcePoint" />
            <mxPoint x="210" y="125" as="targetPoint" />
          </mxGeometry>
        </mxCell>
        <mxCell id="6MZimNjnhGkX_BWOf8k2-23" value="有道无术，术可求" style="text;html=1;align=center;verticalAlign=middle;whiteSpace=wrap;rounded=0;fontStyle=1" vertex="1" parent="6MZimNjnhGkX_BWOf8k2-2">
          <mxGeometry x="480" y="60" width="130" height="30" as="geometry" />
        </mxCell>
        <mxCell id="6MZimNjnhGkX_BWOf8k2-24" value="" style="endArrow=none;html=1;rounded=0;strokeWidth=2;fillColor=#f5f5f5;strokeColor=#666666;exitX=1;exitY=0.5;exitDx=0;exitDy=0;entryX=0;entryY=0.5;entryDx=0;entryDy=0;" edge="1" parent="6MZimNjnhGkX_BWOf8k2-2" source="6MZimNjnhGkX_BWOf8k2-10" target="6MZimNjnhGkX_BWOf8k2-23">
          <mxGeometry width="50" height="50" relative="1" as="geometry">
            <mxPoint x="430" y="125" as="sourcePoint" />
            <mxPoint x="490" y="125" as="targetPoint" />
          </mxGeometry>
        </mxCell>
        <mxCell id="6MZimNjnhGkX_BWOf8k2-25" value="&lt;b style=&quot;color: rgb(51, 51, 51);&quot;&gt;【术】&lt;/b&gt;&lt;span style=&quot;color: rgb(51, 51, 51);&quot;&gt;人用什么活着，怎么才能用好&lt;/span&gt;" style="rounded=0;whiteSpace=wrap;html=1;verticalAlign=top;" vertex="1" parent="6MZimNjnhGkX_BWOf8k2-2">
          <mxGeometry x="200" y="240" width="220" height="30" as="geometry" />
        </mxCell>
        <mxCell id="6MZimNjnhGkX_BWOf8k2-27" value="用啃老活着&lt;div&gt;（&lt;span style=&quot;background-color: initial;&quot;&gt;啃老但打工体验生活）&lt;/span&gt;&lt;/div&gt;" style="text;html=1;align=center;verticalAlign=middle;whiteSpace=wrap;rounded=0;" vertex="1" parent="6MZimNjnhGkX_BWOf8k2-2">
          <mxGeometry x="480" y="220" width="140" height="30" as="geometry" />
        </mxCell>
        <mxCell id="6MZimNjnhGkX_BWOf8k2-29" value="用打工活着&lt;div&gt;（打工但深思体验变强）&lt;br&gt;&lt;/div&gt;" style="text;html=1;align=center;verticalAlign=middle;whiteSpace=wrap;rounded=0;" vertex="1" parent="6MZimNjnhGkX_BWOf8k2-2">
          <mxGeometry x="480" y="260" width="140" height="30" as="geometry" />
        </mxCell>
        <mxCell id="6MZimNjnhGkX_BWOf8k2-30" value="" style="endArrow=none;html=1;rounded=0;strokeWidth=2;fillColor=#f5f5f5;strokeColor=#666666;exitX=1;exitY=0.25;exitDx=0;exitDy=0;entryX=0;entryY=0.5;entryDx=0;entryDy=0;" edge="1" parent="6MZimNjnhGkX_BWOf8k2-2" source="6MZimNjnhGkX_BWOf8k2-25" target="6MZimNjnhGkX_BWOf8k2-27">
          <mxGeometry width="50" height="50" relative="1" as="geometry">
            <mxPoint x="430" y="85" as="sourcePoint" />
            <mxPoint x="490" y="85" as="targetPoint" />
          </mxGeometry>
        </mxCell>
        <mxCell id="6MZimNjnhGkX_BWOf8k2-31" value="" style="endArrow=none;html=1;rounded=0;strokeWidth=2;fillColor=#f5f5f5;strokeColor=#666666;exitX=1;exitY=0.75;exitDx=0;exitDy=0;entryX=0;entryY=0.5;entryDx=0;entryDy=0;" edge="1" parent="6MZimNjnhGkX_BWOf8k2-2" source="6MZimNjnhGkX_BWOf8k2-25" target="6MZimNjnhGkX_BWOf8k2-29">
          <mxGeometry width="50" height="50" relative="1" as="geometry">
            <mxPoint x="430" y="125" as="sourcePoint" />
            <mxPoint x="490" y="125" as="targetPoint" />
          </mxGeometry>
        </mxCell>
        <mxCell id="6MZimNjnhGkX_BWOf8k2-32" value="&lt;div&gt;&lt;b style=&quot;background-color: initial;&quot;&gt;&lt;span style=&quot;background-color: initial;&quot;&gt;看世间百态&lt;/span&gt;&lt;/b&gt;&lt;br&gt;&lt;/div&gt;&lt;div&gt;&lt;b&gt;尝人间冷暖&lt;/b&gt;&lt;/div&gt;" style="text;html=1;align=center;verticalAlign=middle;whiteSpace=wrap;rounded=0;" vertex="1" parent="6MZimNjnhGkX_BWOf8k2-2">
          <mxGeometry x="20" y="210" width="120" height="50" as="geometry" />
        </mxCell>
        <mxCell id="6MZimNjnhGkX_BWOf8k2-33" value="" style="endArrow=none;html=1;rounded=0;strokeWidth=2;fillColor=#f5f5f5;strokeColor=#666666;entryX=1;entryY=0.5;entryDx=0;entryDy=0;exitX=0;exitY=0.5;exitDx=0;exitDy=0;" edge="1" parent="6MZimNjnhGkX_BWOf8k2-2" source="6MZimNjnhGkX_BWOf8k2-15" target="6MZimNjnhGkX_BWOf8k2-32">
          <mxGeometry width="50" height="50" relative="1" as="geometry">
            <mxPoint x="210" y="210" as="sourcePoint" />
            <mxPoint x="490" y="245" as="targetPoint" />
          </mxGeometry>
        </mxCell>
        <mxCell id="6MZimNjnhGkX_BWOf8k2-35" value="&lt;b&gt;（技术问题）&quot;How to Test&quot;&lt;/b&gt;" style="rounded=0;whiteSpace=wrap;html=1;fillColor=#f5f5f5;fontColor=#333333;strokeColor=#666666;verticalAlign=top;" vertex="1" parent="6MZimNjnhGkX_BWOf8k2-2">
          <mxGeometry x="190" y="310" width="240" height="150" as="geometry" />
        </mxCell>
        <mxCell id="6MZimNjnhGkX_BWOf8k2-40" value="" style="endArrow=none;html=1;rounded=0;strokeWidth=2;fillColor=#f5f5f5;strokeColor=#666666;entryX=1;entryY=0.5;entryDx=0;entryDy=0;exitX=0;exitY=0.5;exitDx=0;exitDy=0;" edge="1" parent="6MZimNjnhGkX_BWOf8k2-2" source="6MZimNjnhGkX_BWOf8k2-25" target="6MZimNjnhGkX_BWOf8k2-32">
          <mxGeometry width="50" height="50" relative="1" as="geometry">
            <mxPoint x="210" y="225" as="sourcePoint" />
            <mxPoint x="150" y="225" as="targetPoint" />
          </mxGeometry>
        </mxCell>
        <mxCell id="6MZimNjnhGkX_BWOf8k2-41" value="&lt;b style=&quot;color: rgb(51, 51, 51);&quot;&gt;【测试之术】&lt;/b&gt;&lt;span style=&quot;color: rgb(51, 51, 51);&quot;&gt;测试方法和技术&lt;/span&gt;" style="rounded=0;whiteSpace=wrap;html=1;verticalAlign=top;" vertex="1" parent="6MZimNjnhGkX_BWOf8k2-2">
          <mxGeometry x="200" y="420" width="220" height="30" as="geometry" />
        </mxCell>
        <mxCell id="6MZimNjnhGkX_BWOf8k2-42" value="&lt;b style=&quot;color: rgb(51, 51, 51);&quot;&gt;【道】&lt;/b&gt;&lt;span style=&quot;color: rgb(51, 51, 51);&quot;&gt;探索软件工程交付体系的天花板&lt;/span&gt;" style="rounded=0;whiteSpace=wrap;html=1;verticalAlign=top;" vertex="1" parent="6MZimNjnhGkX_BWOf8k2-2">
          <mxGeometry x="200" y="340" width="220" height="30" as="geometry" />
        </mxCell>
        <mxCell id="6MZimNjnhGkX_BWOf8k2-43" value="&lt;span style=&quot;font-weight: normal;&quot;&gt;白盒测试技术&lt;/span&gt;&lt;div&gt;&lt;span style=&quot;font-weight: 400;&quot;&gt;黑盒测试技术&lt;/span&gt;&lt;/div&gt;" style="text;html=1;align=center;verticalAlign=middle;whiteSpace=wrap;rounded=0;fontStyle=1" vertex="1" parent="6MZimNjnhGkX_BWOf8k2-2">
          <mxGeometry x="470" y="420" width="140" height="30" as="geometry" />
        </mxCell>
        <mxCell id="6MZimNjnhGkX_BWOf8k2-44" value="" style="endArrow=none;html=1;rounded=0;strokeWidth=2;fillColor=#f5f5f5;strokeColor=#666666;exitX=1;exitY=0.5;exitDx=0;exitDy=0;entryX=0;entryY=0.5;entryDx=0;entryDy=0;" edge="1" parent="6MZimNjnhGkX_BWOf8k2-2" source="6MZimNjnhGkX_BWOf8k2-41" target="6MZimNjnhGkX_BWOf8k2-43">
          <mxGeometry width="50" height="50" relative="1" as="geometry">
            <mxPoint x="430" y="313" as="sourcePoint" />
            <mxPoint x="490" y="325" as="targetPoint" />
          </mxGeometry>
        </mxCell>
        <mxCell id="6MZimNjnhGkX_BWOf8k2-49" value="&lt;b style=&quot;color: rgb(51, 51, 51);&quot;&gt;【测试之道】【交付之术】&lt;/b&gt;&lt;span style=&quot;color: rgb(51, 51, 51);&quot;&gt;测试理念&lt;/span&gt;" style="rounded=0;whiteSpace=wrap;html=1;verticalAlign=top;" vertex="1" parent="6MZimNjnhGkX_BWOf8k2-2">
          <mxGeometry x="200" y="380" width="220" height="30" as="geometry" />
        </mxCell>
        <mxCell id="6MZimNjnhGkX_BWOf8k2-50" value="&lt;span style=&quot;font-weight: 400;&quot;&gt;在软件内覆盖代码逻辑&lt;/span&gt;&lt;div&gt;&lt;span style=&quot;font-weight: 400;&quot;&gt;从软件外覆盖用户场景&lt;/span&gt;&lt;/div&gt;" style="text;html=1;align=center;verticalAlign=middle;whiteSpace=wrap;rounded=0;fontStyle=1" vertex="1" parent="6MZimNjnhGkX_BWOf8k2-2">
          <mxGeometry x="470" y="375" width="140" height="40" as="geometry" />
        </mxCell>
        <mxCell id="6MZimNjnhGkX_BWOf8k2-51" value="" style="endArrow=none;html=1;rounded=0;strokeWidth=2;fillColor=#f5f5f5;strokeColor=#666666;exitX=1;exitY=0.5;exitDx=0;exitDy=0;entryX=0;entryY=0.5;entryDx=0;entryDy=0;" edge="1" parent="6MZimNjnhGkX_BWOf8k2-2" source="6MZimNjnhGkX_BWOf8k2-49" target="6MZimNjnhGkX_BWOf8k2-50">
          <mxGeometry width="50" height="50" relative="1" as="geometry">
            <mxPoint x="430" y="445" as="sourcePoint" />
            <mxPoint x="480" y="445" as="targetPoint" />
          </mxGeometry>
        </mxCell>
        <mxCell id="6MZimNjnhGkX_BWOf8k2-52" value="&lt;span style=&quot;font-weight: 400;&quot;&gt;搞测试理念和技术的目的&lt;/span&gt;" style="text;html=1;align=center;verticalAlign=middle;whiteSpace=wrap;rounded=0;fontStyle=1" vertex="1" parent="6MZimNjnhGkX_BWOf8k2-2">
          <mxGeometry x="470" y="335" width="140" height="40" as="geometry" />
        </mxCell>
        <mxCell id="6MZimNjnhGkX_BWOf8k2-53" value="" style="endArrow=none;html=1;rounded=0;strokeWidth=2;fillColor=#f5f5f5;strokeColor=#666666;exitX=1;exitY=0.5;exitDx=0;exitDy=0;entryX=0;entryY=0.5;entryDx=0;entryDy=0;" edge="1" parent="6MZimNjnhGkX_BWOf8k2-2" source="6MZimNjnhGkX_BWOf8k2-42" target="6MZimNjnhGkX_BWOf8k2-52">
          <mxGeometry width="50" height="50" relative="1" as="geometry">
            <mxPoint x="430" y="273" as="sourcePoint" />
            <mxPoint x="490" y="285" as="targetPoint" />
          </mxGeometry>
        </mxCell>
        <mxCell id="6MZimNjnhGkX_BWOf8k2-54" value="&lt;span style=&quot;font-weight: normal;&quot;&gt;虚，但可名状&lt;/span&gt;" style="text;html=1;align=center;verticalAlign=middle;whiteSpace=wrap;rounded=0;fontStyle=1" vertex="1" parent="6MZimNjnhGkX_BWOf8k2-2">
          <mxGeometry x="100" y="380" width="80" height="30" as="geometry" />
        </mxCell>
        <mxCell id="6MZimNjnhGkX_BWOf8k2-55" value="&lt;span style=&quot;font-weight: normal;&quot;&gt;虚而不可名状&lt;/span&gt;" style="text;html=1;align=center;verticalAlign=middle;whiteSpace=wrap;rounded=0;fontStyle=1" vertex="1" parent="6MZimNjnhGkX_BWOf8k2-2">
          <mxGeometry x="100" y="340" width="80" height="30" as="geometry" />
        </mxCell>
        <mxCell id="6MZimNjnhGkX_BWOf8k2-56" value="" style="endArrow=none;html=1;rounded=0;strokeWidth=2;fillColor=#f5f5f5;strokeColor=#666666;exitX=1;exitY=0.5;exitDx=0;exitDy=0;entryX=0;entryY=0.5;entryDx=0;entryDy=0;" edge="1" parent="6MZimNjnhGkX_BWOf8k2-2" source="6MZimNjnhGkX_BWOf8k2-55" target="6MZimNjnhGkX_BWOf8k2-42">
          <mxGeometry width="50" height="50" relative="1" as="geometry">
            <mxPoint x="430" y="365" as="sourcePoint" />
            <mxPoint x="480" y="365" as="targetPoint" />
          </mxGeometry>
        </mxCell>
        <mxCell id="6MZimNjnhGkX_BWOf8k2-57" value="" style="endArrow=none;html=1;rounded=0;strokeWidth=2;fillColor=#f5f5f5;strokeColor=#666666;entryX=0;entryY=0.5;entryDx=0;entryDy=0;" edge="1" parent="6MZimNjnhGkX_BWOf8k2-2" source="6MZimNjnhGkX_BWOf8k2-54" target="6MZimNjnhGkX_BWOf8k2-49">
          <mxGeometry width="50" height="50" relative="1" as="geometry">
            <mxPoint x="150" y="365" as="sourcePoint" />
            <mxPoint x="210" y="365" as="targetPoint" />
          </mxGeometry>
        </mxCell>
        <mxCell id="6MZimNjnhGkX_BWOf8k2-58" value="&lt;span style=&quot;font-weight: normal;&quot;&gt;实，也可名状&lt;/span&gt;" style="text;html=1;align=center;verticalAlign=middle;whiteSpace=wrap;rounded=0;fontStyle=1" vertex="1" parent="6MZimNjnhGkX_BWOf8k2-2">
          <mxGeometry x="100" y="420" width="80" height="30" as="geometry" />
        </mxCell>
        <mxCell id="6MZimNjnhGkX_BWOf8k2-59" value="" style="endArrow=none;html=1;rounded=0;strokeWidth=2;fillColor=#f5f5f5;strokeColor=#666666;entryX=0;entryY=0.5;entryDx=0;entryDy=0;exitX=1;exitY=0.5;exitDx=0;exitDy=0;" edge="1" parent="6MZimNjnhGkX_BWOf8k2-2" source="6MZimNjnhGkX_BWOf8k2-58" target="6MZimNjnhGkX_BWOf8k2-41">
          <mxGeometry width="50" height="50" relative="1" as="geometry">
            <mxPoint x="170" y="405" as="sourcePoint" />
            <mxPoint x="210" y="405" as="targetPoint" />
          </mxGeometry>
        </mxCell>
        <mxCell id="6MZimNjnhGkX_BWOf8k2-60" value="&lt;span style=&quot;&quot;&gt;&lt;b&gt;上人用道&lt;/b&gt;&lt;/span&gt;" style="text;html=1;align=center;verticalAlign=middle;whiteSpace=wrap;rounded=0;fontStyle=0" vertex="1" parent="6MZimNjnhGkX_BWOf8k2-2">
          <mxGeometry x="10" y="360" width="60" height="30" as="geometry" />
        </mxCell>
        <mxCell id="6MZimNjnhGkX_BWOf8k2-61" value="" style="endArrow=none;html=1;rounded=0;strokeWidth=2;fillColor=#f5f5f5;strokeColor=#666666;exitX=1;exitY=0.25;exitDx=0;exitDy=0;entryX=0;entryY=0.75;entryDx=0;entryDy=0;" edge="1" parent="6MZimNjnhGkX_BWOf8k2-2" source="6MZimNjnhGkX_BWOf8k2-60" target="6MZimNjnhGkX_BWOf8k2-55">
          <mxGeometry width="50" height="50" relative="1" as="geometry">
            <mxPoint x="190" y="365" as="sourcePoint" />
            <mxPoint x="210" y="365" as="targetPoint" />
          </mxGeometry>
        </mxCell>
        <mxCell id="6MZimNjnhGkX_BWOf8k2-62" value="" style="endArrow=none;html=1;rounded=0;strokeWidth=2;fillColor=#f5f5f5;strokeColor=#666666;exitX=1;exitY=0.75;exitDx=0;exitDy=0;entryX=0;entryY=0.25;entryDx=0;entryDy=0;" edge="1" parent="6MZimNjnhGkX_BWOf8k2-2" source="6MZimNjnhGkX_BWOf8k2-60" target="6MZimNjnhGkX_BWOf8k2-54">
          <mxGeometry width="50" height="50" relative="1" as="geometry">
            <mxPoint x="80" y="378" as="sourcePoint" />
            <mxPoint x="110" y="365" as="targetPoint" />
          </mxGeometry>
        </mxCell>
        <mxCell id="6MZimNjnhGkX_BWOf8k2-63" value="中人用术" style="text;html=1;align=center;verticalAlign=middle;whiteSpace=wrap;rounded=0;fontStyle=1" vertex="1" parent="6MZimNjnhGkX_BWOf8k2-2">
          <mxGeometry x="10" y="400" width="60" height="30" as="geometry" />
        </mxCell>
        <mxCell id="6MZimNjnhGkX_BWOf8k2-64" value="" style="endArrow=none;html=1;rounded=0;strokeWidth=2;fillColor=#f5f5f5;strokeColor=#666666;exitX=1;exitY=0.25;exitDx=0;exitDy=0;entryX=0;entryY=0.75;entryDx=0;entryDy=0;" edge="1" parent="6MZimNjnhGkX_BWOf8k2-2" source="6MZimNjnhGkX_BWOf8k2-63" target="6MZimNjnhGkX_BWOf8k2-54">
          <mxGeometry width="50" height="50" relative="1" as="geometry">
            <mxPoint x="80" y="393" as="sourcePoint" />
            <mxPoint x="110" y="398" as="targetPoint" />
          </mxGeometry>
        </mxCell>
        <mxCell id="6MZimNjnhGkX_BWOf8k2-65" value="" style="endArrow=none;html=1;rounded=0;strokeWidth=2;fillColor=#f5f5f5;strokeColor=#666666;exitX=1;exitY=0.75;exitDx=0;exitDy=0;entryX=0;entryY=0.25;entryDx=0;entryDy=0;" edge="1" parent="6MZimNjnhGkX_BWOf8k2-2" source="6MZimNjnhGkX_BWOf8k2-63" target="6MZimNjnhGkX_BWOf8k2-58">
          <mxGeometry width="50" height="50" relative="1" as="geometry">
            <mxPoint x="80" y="418" as="sourcePoint" />
            <mxPoint x="110" y="413" as="targetPoint" />
          </mxGeometry>
        </mxCell>
        <mxCell id="6MZimNjnhGkX_BWOf8k2-66" value="下人用力" style="text;html=1;align=center;verticalAlign=middle;whiteSpace=wrap;rounded=0;fontStyle=1" vertex="1" parent="6MZimNjnhGkX_BWOf8k2-2">
          <mxGeometry x="10" y="440" width="60" height="30" as="geometry" />
        </mxCell>
      </root>
    </mxGraphModel>
  </diagram>
</mxfile>
